<svg xmlns="http://www.w3.org/2000/svg" viewBox="0 0 400 400" width="400" height="400"><defs><radialGradient id="glowfront"><stop offset="0" stop-color="#FF6A2B" stop-opacity=".7"/><stop offset=".45" stop-color="#FF6A2B" stop-opacity=".22"/><stop offset="1" stop-color="#FF6A2B" stop-opacity="0"/></radialGradient></defs><g transform=""><path d="M174.0,298.0 Q164.0,322.0 166.0,346.0" fill="none" stroke="#3b3b49" stroke-width="20" stroke-linecap="round" stroke-linejoin="round"/><path d="M174.0,298.0 Q164.0,322.0 166.0,346.0" fill="none" stroke="#050507" stroke-width="16" stroke-linecap="round" stroke-linejoin="round"/><path d="M174.0,298.0 Q164.0,322.0 166.0,346.0" fill="none" stroke="#2a2a35" stroke-width="9" stroke-linecap="round" stroke-linejoin="round"/><path d="M226.0,298.0 Q236.0,322.0 234.0,346.0" fill="none" stroke="#3b3b49" stroke-width="20" stroke-linecap="round" stroke-linejoin="round"/><path d="M226.0,298.0 Q236.0,322.0 234.0,346.0" fill="none" stroke="#050507" stroke-width="16" stroke-linecap="round" stroke-linejoin="round"/><path d="M226.0,298.0 Q236.0,322.0 234.0,346.0" fill="none" stroke="#2a2a35" stroke-width="9" stroke-linecap="round" stroke-linejoin="round"/><g transform="translate(166.0,346.0) rotate(0) scale(-1,1)"><path d="M-16 6 C-18 -10 2 -14 10 -6 C18 -4 28 0 27 8 C27 14 20 15 6 15 L-12 15 C-17 15 -17 10 -16 6 Z" fill="#f3efe6" stroke="#050507" stroke-width="4.5" stroke-linejoin="round"/><path d="M-15 10 L25 10" stroke="#cdc7ba" stroke-width="4" stroke-linecap="round"/><path d="M-2 -5 l6 4 M3 -8 l6 4" stroke="#050507" stroke-width="2.5" stroke-linecap="round"/></g><g transform="translate(234.0,346.0) rotate(0) scale(1,1)"><path d="M-16 6 C-18 -10 2 -14 10 -6 C18 -4 28 0 27 8 C27 14 20 15 6 15 L-12 15 C-17 15 -17 10 -16 6 Z" fill="#f3efe6" stroke="#050507" stroke-width="4.5" stroke-linejoin="round"/><path d="M-15 10 L25 10" stroke="#cdc7ba" stroke-width="4" stroke-linecap="round"/><path d="M-2 -5 l6 4 M3 -8 l6 4" stroke="#050507" stroke-width="2.5" stroke-linecap="round"/></g><path d="M120.0,240.0 Q82.0,268.0 92.0,306.0" fill="none" stroke="#3b3b49" stroke-width="19" stroke-linecap="round" stroke-linejoin="round"/><path d="M120.0,240.0 Q82.0,268.0 92.0,306.0" fill="none" stroke="#050507" stroke-width="15" stroke-linecap="round" stroke-linejoin="round"/><path d="M120.0,240.0 Q82.0,268.0 92.0,306.0" fill="none" stroke="#2a2a35" stroke-width="8" stroke-linecap="round" stroke-linejoin="round"/><path d="M280.0,240.0 Q328.0,226.0 332.0,156.0" fill="none" stroke="#3b3b49" stroke-width="19" stroke-linecap="round" stroke-linejoin="round"/><path d="M280.0,240.0 Q328.0,226.0 332.0,156.0" fill="none" stroke="#050507" stroke-width="15" stroke-linecap="round" stroke-linejoin="round"/><path d="M280.0,240.0 Q328.0,226.0 332.0,156.0" fill="none" stroke="#2a2a35" stroke-width="8" stroke-linecap="round" stroke-linejoin="round"/><g transform="rotate(-3 200 288)"><g transform="rotate(18 200 228)"><rect x="176" y="116" width="48" height="34" rx="7" fill="#3b3b49"/><rect x="178" y="118" width="44" height="30" rx="6" fill="#6a6a7a" stroke="#050507" stroke-width="5"/><rect x="204" y="120.5" width="15" height="25" rx="3" fill="#454553"/><rect x="184" y="122" width="6" height="22" rx="3" fill="#9a9aab"/><ellipse cx="200" cy="118" rx="13" ry="4" fill="#050507"/></g><clipPath id="bcfront"><circle cx="200" cy="228" r="88"/></clipPath><circle cx="200" cy="228" r="94" fill="#3b3b49"/><g clip-path="url(#bcfront)"><rect x="112" y="140" width="176" height="176" fill="#16161d"/><circle cx="187" cy="212" r="88" fill="#2a2a35"/><ellipse cx="156" cy="182" rx="26" ry="12" transform="rotate(-40 156 182)" fill="#4a4a5e"/><ellipse cx="142" cy="202" rx="5" ry="9" transform="rotate(-20 142 202)" fill="#4a4a5e"/></g><ellipse cx="160" cy="176" rx="9" ry="5" transform="rotate(-40 160 176)" fill="#f3efe6" opacity=".9"/><circle cx="200" cy="228" r="88" fill="none" stroke="#050507" stroke-width="6.5"/><ellipse cx="154" cy="246" rx="11" ry="6" fill="#FF6A2B" opacity="0.32"/><ellipse cx="246" cy="246" rx="11" ry="6" fill="#FF6A2B" opacity="0.32"/><ellipse cx="176" cy="218" rx="15" ry="19" fill="#f3efe6" stroke="#050507" stroke-width="4"/><circle cx="177" cy="220" r="8" fill="#050507"/><circle cx="180" cy="217" r="2.8" fill="#fff"/><ellipse cx="224" cy="218" rx="15" ry="19" fill="#f3efe6" stroke="#050507" stroke-width="4"/><circle cx="225" cy="220" r="8" fill="#050507"/><circle cx="228" cy="217" r="2.8" fill="#fff"/><path d="M165.1 190.1 L186.9 187.9" stroke="#f3efe6" stroke-width="5" stroke-linecap="round"/><path d="M213.2 187.1 L234.8 190.9" stroke="#f3efe6" stroke-width="5" stroke-linecap="round"/><path d="M180 252 Q200 256 220 252 Q216 276 200 276 Q184 276 180 252 Z" fill="#0c0c10" stroke="#f3efe6" stroke-width="4.5" stroke-linejoin="round"/><path d="M191 272 Q200 264 209 272" fill="#7a4b4f"/><path d="M234.3,122.4 C246.3,92.4 278.3,98.4 270.3,72.4 S248.3,56.4 256.3,44.4" fill="none" stroke="#050507" stroke-width="14" stroke-linecap="round"/><path d="M234.3,122.4 C246.3,92.4 278.3,98.4 270.3,72.4 S248.3,56.4 256.3,44.4" fill="none" stroke="#8d8678" stroke-width="7.5" stroke-linecap="round"/><path d="M234.3,122.4 C246.3,92.4 278.3,98.4 270.3,72.4 S248.3,56.4 256.3,44.4" fill="none" stroke="#5f5a50" stroke-width="7.5" stroke-dasharray="3 6" stroke-linecap="butt"/><circle cx="256.30088637561914" cy="42.43272669123796" r="48.0" fill="url(#glowfront)"/><polygon points="226.7,4.7 224.6,9.3 227.1,13.7 222.5,11.6 218.1,14.1 220.1,9.5 217.7,5.1 222.3,7.2" fill="#FF6A2B"/><polygon points="254.6,-11.9 254.4,-8.7 256.9,-6.6 253.7,-6.8 251.6,-4.3 251.8,-7.5 249.3,-9.5 252.5,-9.4" fill="#FFC24D"/><polygon points="299.7,19.8 300.9,25.0 305.8,27.1 300.6,28.3 298.5,33.2 297.3,28.0 292.4,25.9 297.6,24.7" fill="#FF6A2B"/><polygon points="221.0,44.8 220.4,49.2 223.7,52.3 219.2,51.7 216.1,54.9 216.7,50.5 213.5,47.4 217.9,48.0" fill="#FFC24D"/><polygon points="297.3,41.9 295.8,45.4 297.7,48.7 294.2,47.2 290.9,49.2 292.4,45.7 290.4,42.4 294.0,43.9" fill="#FF6A2B"/><polygon points="260.6,-0.6 261.7,4.3 266.3,6.4 261.3,7.5 259.2,12.1 258.2,7.1 253.6,5.0 258.5,4.0" fill="#FFC24D"/><polygon points="260.1,15.7 261.5,32.7 276.4,24.4 266.5,38.3 283.3,41.5 266.8,45.8 277.6,59.1 262.1,51.8 261.9,68.8 254.8,53.3 243.6,66.3 248.1,49.8 231.3,52.5 245.3,42.8 230.6,34.1 247.6,35.7 242.0,19.5 254.0,31.7" fill="#FF6A2B" stroke="#050507" stroke-width="3.5" stroke-linejoin="round"/><polygon points="261.8,27.4 261.3,37.5 271.5,37.3 263.2,43.3 269.7,51.1 260.0,48.4 257.9,58.4 253.9,49.0 244.8,53.6 249.7,44.7 240.4,40.4 250.4,38.6 248.0,28.8 255.6,35.5" fill="#FFC24D"/><circle cx="256.30088637561914" cy="42.43272669123796" r="5.5" fill="#FFF6DF"/></g><g transform="translate(92.0,306.0) rotate(75.3)"><rect x="-21" y="-11" width="12" height="22" rx="4" fill="#cdc7ba" stroke="#050507" stroke-width="4.5"/><circle cx="2" cy="0" r="15" fill="#f3efe6" stroke="#050507" stroke-width="4.5"/><ellipse cx="-2" cy="-13" rx="7" ry="6" fill="#f3efe6" stroke="#050507" stroke-width="4"/><path d="M6 -6 q6 6 0 12" fill="none" stroke="#cdc7ba" stroke-width="3" stroke-linecap="round"/></g><g transform="translate(332.0,156.0) rotate(-86.7)"><rect x="-21" y="-11" width="12" height="22" rx="4" fill="#cdc7ba" stroke="#050507" stroke-width="4.5"/><circle cx="2" cy="0" r="15" fill="#f3efe6" stroke="#050507" stroke-width="4.5"/><ellipse cx="-2" cy="13" rx="7" ry="6" fill="#f3efe6" stroke="#050507" stroke-width="4"/><path d="M6 6 q6 6 0 12" fill="none" stroke="#cdc7ba" stroke-width="3" stroke-linecap="round"/></g></g></svg>